<?xml version="1.0" encoding="UTF-8" standalone="no"?>
<svg
   width="32"
   height="32"
   viewBox="0 0 8.4666665 8.4666669"
   version="1.1"
   id="svg20249"
   inkscape:version="1.1.2 (b8e25be8, 2022-02-05)"
   sodipodi:docname="base-app-icon.svg"
   xmlns:inkscape="http://www.inkscape.org/namespaces/inkscape"
   xmlns:sodipodi="http://sodipodi.sourceforge.net/DTD/sodipodi-0.dtd"
   xmlns:xlink="http://www.w3.org/1999/xlink"
   xmlns="http://www.w3.org/2000/svg"
   xmlns:svg="http://www.w3.org/2000/svg"
   xmlns:rdf="http://www.w3.org/1999/02/22-rdf-syntax-ns#"
   xmlns:cc="http://creativecommons.org/ns#"
   xmlns:dc="http://purl.org/dc/elements/1.1/">
  <defs
     id="defs20243">
    <linearGradient
       inkscape:collect="always"
       xlink:href="#linearGradient9165"
       id="linearGradient822-7-0"
       x1="4.6862917"
       y1="35.595917"
       x2="27.313709"
       y2="-3.5959179"
       gradientUnits="userSpaceOnUse"
       gradientTransform="matrix(0.26458333,0,0,0.26458333,75.629416,277.46165)" />
    <linearGradient
       inkscape:collect="always"
       id="linearGradient9165">
      <stop
         style="stop-color:#643264;stop-opacity:1"
         offset="0"
         id="stop9161" />
      <stop
         style="stop-color:#c864c8;stop-opacity:1"
         offset="1"
         id="stop9163" />
    </linearGradient>
  </defs>
  <sodipodi:namedview
     id="base"
     pagecolor="#ffffff"
     bordercolor="#666666"
     borderopacity="1.0"
     inkscape:pageopacity="0.0"
     inkscape:pageshadow="2"
     inkscape:zoom="15.839192"
     inkscape:cx="18.182746"
     inkscape:cy="17.519833"
     inkscape:document-units="mm"
     inkscape:current-layer="layer1"
     showgrid="true"
     units="px"
     inkscape:window-width="1312"
     inkscape:window-height="907"
     inkscape:window-x="0"
     inkscape:window-y="25"
     inkscape:window-maximized="0"
     inkscape:document-rotation="0"
     inkscape:pagecheckerboard="0">
    <inkscape:grid
       type="xygrid"
       id="grid20794"
       empspacing="4" />
    <inkscape:grid
       type="xygrid"
       id="grid20796"
       empspacing="1"
       originy="0.13229167"
       originx="0.13229167"
       dotted="true" />
  </sodipodi:namedview>
  <metadata
     id="metadata20246">
    <rdf:RDF>
      <cc:Work
         rdf:about="">
        <dc:format>image/svg+xml</dc:format>
        <dc:type
           rdf:resource="http://purl.org/dc/dcmitype/StillImage" />
      </cc:Work>
    </rdf:RDF>
  </metadata>
  <g
     inkscape:label="Layer 1"
     inkscape:groupmode="layer"
     id="layer1"
     transform="translate(0,-288.53332)">
    <circle
       style="opacity:1;fill:url(#linearGradient822-7-0);fill-opacity:1;stroke:none;stroke-width:0.26458332;stroke-linecap:round;stroke-linejoin:round;stroke-miterlimit:4;stroke-dasharray:none;stroke-dashoffset:0;stroke-opacity:1;paint-order:normal"
       id="path814-0-9"
       cx="79.862709"
       cy="281.69482"
       r="4.2333331"
       transform="rotate(15)"
       inkscape:export-filename="/home/victor/newcontemporary.png"
       inkscape:export-xdpi="2165.5593"
       inkscape:export-ydpi="2165.5593" />
    <path
       style="opacity:1;fill:#000000;fill-opacity:1;stroke:none;stroke-width:0.36035824;stroke-linecap:round;stroke-linejoin:round;stroke-miterlimit:4;stroke-dasharray:none;stroke-dashoffset:0;stroke-opacity:1;paint-order:normal"
       d="m 4.5072672,291.74432 c -0.5663401,-0.15175 -1.1444399,0.18202 -1.29618,0.74836 l -1.05944,3.9538 a 4.2333333,4.2333333 0 0 0 0.98603,0.4092 4.2333333,4.2333333 0 0 0 5.1847901,-2.99343 4.2333333,4.2333333 0 0 0 0.1406401,-1.05798 z"
       id="rect824-2-2"
       inkscape:connector-curvature="0"
       inkscape:export-filename="/home/victor/newcontemporary.png"
       inkscape:export-xdpi="2165.5593"
       inkscape:export-ydpi="2165.5593" />
  </g>
  <g
     inkscape:groupmode="layer"
     id="iconlayer"
     inkscape:label="Icon">
    <path
       id="path934"
       style="fill:#ffffff;fill-opacity:1;stroke:none;stroke-width:0.999999;stroke-linecap:round;stroke-linejoin:round"
       d="M 23.763672 17.449219 A 3.6784044 7.3568087 60 0 0 18.142578 19.126953 A 3.6784044 7.3568087 60 0 0 13.611328 25.992188 A 3.6784044 7.3568087 60 0 0 21.820312 25.498047 A 3.6784044 7.3568087 60 0 0 26.353516 18.634766 A 3.6784044 7.3568087 60 0 0 23.763672 17.449219 z M 21.242188 20.691406 A 1.2261348 2.4522695 60 0 1 22.105469 21.087891 A 1.2261348 2.4522695 60 0 1 20.595703 23.375 A 1.2261348 2.4522695 60 0 1 17.857422 23.539062 A 1.2261348 2.4522695 60 0 1 19.369141 21.251953 A 1.2261348 2.4522695 60 0 1 21.242188 20.691406 z "
       transform="scale(0.26458333)" />
  </g>
</svg>
